<?xml version="1.0" standalone="no"?>
<!DOCTYPE svg PUBLIC "-//W3C//DTD SVG 20010904//EN"
 "http://www.w3.org/TR/2001/REC-SVG-20010904/DTD/svg10.dtd">
<svg version="1.0" xmlns="http://www.w3.org/2000/svg"
 width="1536.000000pt" height="1219.000000pt" viewBox="0 0 1536.000000 1219.000000"
 preserveAspectRatio="xMidYMid meet">
<metadata>
Created by potrace 1.16, written by Peter Selinger 2001-2019
</metadata>
<g transform="translate(0.000000,1219.000000) scale(0.100000,-0.100000)"
fill="#000000" stroke="none">
<path d="M6165 12180 c-9 -14 25 -65 110 -165 38 -44 90 -114 116 -155 67
-106 94 -136 130 -146 18 -5 37 -18 43 -29 44 -79 125 -142 202 -156 57 -11
82 -32 141 -122 55 -82 88 -109 173 -139 62 -22 66 -25 92 -80 15 -31 37 -62
48 -68 16 -9 154 -40 176 -40 2 0 4 -33 4 -72 0 -86 18 -123 76 -159 52 -31
54 -34 54 -105 0 -47 -4 -63 -16 -68 -25 -10 -47 -7 -78 9 -109 57 -255 4
-321 -116 -28 -51 -30 -61 -33 -187 -4 -151 12 -402 33 -507 8 -38 26 -113 40
-164 14 -52 25 -113 25 -135 0 -35 -5 -44 -29 -58 -46 -26 -111 -146 -111
-206 0 -9 -4 -23 -9 -31 -16 -25 -36 3 -71 102 -40 113 -140 325 -165 351 -16
16 -20 42 -27 190 -14 311 -51 478 -132 596 -38 55 -41 71 -57 285 -13 180
-25 214 -84 233 -34 11 -46 11 -82 -3 -24 -9 -48 -26 -55 -38 -16 -31 -12
-109 12 -210 26 -112 25 -131 -6 -213 -24 -66 -25 -72 -14 -154 35 -253 86
-442 156 -581 29 -58 48 -115 59 -174 9 -48 23 -106 31 -128 9 -23 21 -89 29
-147 7 -58 18 -117 23 -131 18 -44 62 -88 131 -128 87 -51 98 -65 122 -151 11
-39 28 -89 39 -110 23 -45 94 -110 203 -186 45 -31 84 -59 86 -61 3 -2 -4 -20
-14 -41 -10 -20 -21 -68 -24 -106 l-6 -70 -57 -17 c-32 -9 -77 -28 -100 -42
-95 -56 -194 -179 -238 -296 -26 -70 -32 -72 -113 -36 -75 33 -211 71 -321 90
-113 19 -236 19 -489 -1 -157 -12 -283 -15 -567 -11 -420 7 -609 24 -639 60
-5 7 -23 77 -40 156 -17 80 -36 150 -42 155 -12 13 -7 -43 20 -216 10 -60 15
-108 12 -108 -3 0 -22 5 -41 10 -35 10 -36 11 -48 82 -20 114 -96 415 -100
393 -1 -11 13 -118 33 -238 19 -120 35 -222 35 -227 0 -16 -72 14 -81 35 -4
11 -29 117 -54 235 -48 227 -73 325 -81 317 -3 -2 4 -58 15 -123 32 -186 61
-385 61 -411 0 -22 -4 -24 -37 -21 -30 2 -41 9 -52 32 -7 15 -39 155 -71 310
-92 445 -100 437 -34 -34 19 -135 34 -253 34 -262 0 -14 -9 -18 -40 -18 -65 0
-58 -22 -160 510 -28 146 -54 267 -57 270 -11 9 6 -144 48 -443 23 -163 40
-300 36 -303 -3 -3 -30 1 -60 10 -47 14 -57 21 -66 48 -6 17 -38 207 -71 422
-33 215 -64 405 -69 421 l-9 30 -1 -32 c-1 -17 19 -214 44 -436 25 -223 45
-408 45 -411 0 -13 -47 -5 -76 13 -36 22 -31 -6 -109 566 -48 345 -69 452 -60
290 6 -97 71 -738 81 -794 l5 -33 -48 7 c-26 3 -52 11 -57 15 -5 5 -37 206
-72 447 -93 648 -104 653 -38 16 31 -300 40 -443 30 -443 -18 0 -66 25 -70 37
-4 8 -33 216 -66 462 -102 751 -102 710 -5 -381 6 -66 6 -68 -17 -68 -40 0
-85 35 -92 72 -3 18 -33 247 -66 508 -33 261 -64 495 -69 520 l-9 45 -1 -42
c0 -23 17 -238 39 -477 40 -438 47 -551 32 -560 -5 -3 -31 2 -58 10 l-49 14
-44 363 c-47 390 -97 757 -106 765 -9 9 -6 -46 15 -248 37 -374 72 -832 63
-841 -12 -12 -84 24 -114 57 -25 28 -29 45 -73 389 -66 511 -87 658 -97 675
-5 9 -7 -2 -4 -30 7 -62 83 -847 91 -942 8 -90 8 -90 -72 -52 -61 29 -58 21
-74 179 -28 286 -102 880 -110 894 -12 19 -12 28 35 -561 19 -235 35 -434 35
-443 0 -19 -29 -19 -80 1 -45 18 -41 4 -65 229 -57 536 -124 1026 -109 795 5
-90 61 -829 69 -917 4 -41 2 -63 -5 -63 -6 0 -44 14 -85 31 -49 21 -75 37 -75
48 0 27 -69 626 -91 789 -23 173 -41 241 -33 122 3 -41 20 -261 39 -489 19
-228 33 -417 30 -419 -8 -9 -146 52 -155 68 -5 9 -34 219 -65 466 -30 247 -57
454 -59 459 -11 26 -4 -116 19 -385 13 -162 27 -348 31 -414 l7 -118 -24 7
c-13 4 -51 19 -85 34 l-60 28 -22 199 c-39 345 -73 606 -83 628 -10 24 -9 12
27 -441 14 -177 24 -331 22 -342 -3 -19 -5 -19 -72 9 -38 16 -74 34 -78 38 -5
5 -24 143 -43 308 -38 331 -55 457 -62 450 -6 -5 22 -404 42 -601 7 -71 12
-131 10 -133 -1 -1 -23 6 -48 17 -77 33 -80 42 -132 416 -19 138 -37 255 -39
260 -10 23 -4 -120 9 -245 8 -74 17 -186 21 -247 6 -96 5 -113 -8 -113 -21 0
-107 30 -113 40 -3 5 -12 62 -20 127 -31 238 -57 408 -66 423 -12 21 -12 17
11 -225 11 -115 20 -229 20 -252 0 -52 -13 -55 -76 -18 -47 27 -47 27 -79 215
-24 141 -46 234 -57 245 -7 7 -8 1 -4 -18 7 -31 46 -360 46 -391 0 -16 -6 -18
-46 -13 -25 2 -53 11 -60 19 -8 8 -28 82 -45 163 -30 147 -48 206 -49 157 0
-12 9 -88 21 -169 12 -91 17 -149 11 -155 -14 -14 -53 9 -151 86 -46 37 -92
71 -102 77 -39 20 -6 -20 77 -96 46 -42 84 -85 84 -95 0 -10 -8 -28 -19 -41
-21 -26 4 -30 -246 34 -268 68 -269 58 -3 -32 97 -32 190 -66 207 -76 34 -17
75 -75 63 -87 -4 -4 -124 -12 -267 -18 -417 -17 -429 -22 -86 -36 378 -15 397
-17 456 -56 25 -17 43 -34 38 -38 -4 -4 -129 -26 -278 -49 -347 -54 -545 -89
-564 -102 -12 -8 -5 -9 24 -5 343 46 802 96 872 96 l48 -1 -79 -41 c-44 -22
-184 -86 -310 -143 -323 -144 -453 -207 -440 -212 6 -2 166 62 355 143 489
208 559 234 559 206 0 -10 -105 -79 -370 -242 -601 -370 -599 -386 5 -35 348
202 423 240 459 231 14 -3 26 -11 26 -16 0 -5 -35 -37 -78 -71 -189 -154 -659
-548 -677 -569 -28 -33 56 30 393 292 386 301 473 360 422 287 -42 -58 -147
-186 -330 -399 -159 -185 -293 -346 -329 -392 -7 -10 -9 -18 -4 -18 6 0 64 60
129 132 316 351 620 668 642 668 21 0 -4 -39 -247 -380 -508 -711 -493 -721
31 -20 129 173 247 326 261 339 27 24 27 24 67 6 22 -10 40 -22 40 -28 0 -12
-34 -67 -285 -452 -211 -324 -293 -453 -315 -495 -34 -67 53 54 379 525 145
209 267 384 272 389 14 15 69 -14 69 -37 0 -28 -55 -125 -249 -440 -177 -288
-320 -526 -340 -567 l-12 -25 23 25 c23 26 76 106 432 660 108 168 202 309
209 314 19 13 111 -29 101 -46 -4 -7 -112 -182 -239 -388 -184 -298 -335 -548
-382 -632 -2 -5 -2 -8 1 -8 7 0 282 416 501 758 92 144 172 262 177 262 15 0
108 -50 108 -58 0 -5 -73 -127 -161 -273 -355 -580 -455 -749 -445 -749 6 0
209 307 476 720 141 217 179 270 197 270 24 0 113 -36 113 -45 0 -4 -69 -118
-154 -253 -305 -491 -460 -751 -451 -760 3 -3 7 -3 9 -1 2 2 144 222 316 489
171 267 315 489 320 494 11 11 60 -1 90 -24 l24 -18 -165 -274 c-91 -150 -226
-371 -298 -491 -114 -188 -131 -220 -118 -230 28 -22 195 -552 183 -582 -18
-49 -50 10 -176 324 -56 140 -106 264 -112 275 -28 52 -13 -18 52 -239 79
-270 96 -344 87 -369 -16 -42 -41 -6 -118 169 -228 519 -242 530 -94 75 76
-236 82 -260 62 -260 -35 0 -72 57 -227 345 -173 322 -184 319 -49 -15 50
-124 99 -249 109 -277 l19 -53 -26 0 c-37 0 -66 36 -235 289 -83 124 -160 237
-171 251 l-19 25 7 -25 c4 -14 65 -144 136 -290 75 -153 125 -266 118 -269
-17 -5 -150 89 -388 274 -118 91 -222 170 -232 176 -45 24 2 -26 164 -176 229
-212 335 -316 317 -311 -8 2 -112 36 -230 75 -295 96 -519 167 -555 175 -56
13 -13 -11 91 -53 130 -51 341 -140 424 -179 63 -29 64 -31 30 -31 -19 -1
-145 13 -280 29 -135 16 -258 30 -275 29 l-30 -1 30 -9 c23 -7 406 -77 632
-116 18 -3 30 -9 28 -13 -5 -8 -51 -14 -385 -51 -101 -11 -186 -22 -189 -24
-8 -9 126 -6 466 12 308 15 368 15 351 -2 -3 -3 -164 -41 -358 -85 -194 -44
-355 -82 -358 -85 -3 -3 -3 -7 -1 -9 2 -2 200 30 439 70 239 41 441 73 449 72
8 -2 -141 -56 -332 -121 -345 -117 -444 -154 -435 -162 2 -2 139 34 303 81
416 118 642 176 668 172 14 -2 -90 -51 -268 -127 -383 -163 -566 -243 -562
-247 5 -5 223 69 537 184 389 141 540 184 540 154 0 -18 -63 -46 -504 -232
-225 -94 -425 -180 -445 -190 -95 -50 31 -8 559 185 414 152 602 217 607 211
5 -5 -116 -74 -462 -261 -369 -200 -526 -288 -521 -292 7 -7 172 70 601 280
481 235 595 285 595 261 0 -13 -64 -58 -515 -359 -259 -173 -481 -323 -495
-334 -51 -41 0 -19 106 46 530 324 1063 638 1118 659 47 18 -3 -31 -181 -176
-104 -85 -306 -250 -449 -367 -265 -217 -386 -322 -347 -303 12 5 248 180 525
388 523 393 598 448 598 436 0 -8 -94 -109 -440 -479 -314 -335 -414 -445
-405 -445 9 0 76 63 487 461 324 314 503 479 519 479 5 0 9 -4 9 -9 0 -15
-156 -221 -376 -496 -546 -683 -553 -712 -25 -95 195 228 393 458 440 510 46
52 88 99 93 104 4 5 10 7 14 4 6 -7 -21 -51 -294 -478 -199 -310 -359 -566
-381 -609 -50 -93 79 87 444 624 319 469 316 465 388 465 41 0 48 -3 43 -16
-3 -9 -122 -199 -265 -422 -294 -463 -434 -693 -426 -700 7 -7 -20 -45 275
393 408 605 495 727 526 739 19 7 94 8 94 1 0 -6 -95 -159 -332 -530 -219
-344 -363 -579 -349 -571 17 11 133 178 594 858 149 219 175 248 223 248 19 0
34 -4 34 -9 0 -5 -104 -173 -231 -373 -297 -464 -421 -664 -444 -708 -17 -35
-17 -35 3 -15 11 11 163 229 337 485 419 613 424 620 482 620 18 0 33 -2 33
-5 0 -2 -120 -193 -267 -422 -275 -432 -393 -622 -393 -636 0 -21 30 19 167
221 291 431 448 659 515 750 66 89 69 92 107 92 22 0 43 -5 46 -10 10 -16 -45
-109 -267 -458 -256 -402 -349 -554 -343 -560 3 -3 6 -3 8 -1 23 30 117 167
327 474 277 404 352 508 400 549 32 26 70 35 70 16 0 -14 -116 -205 -325 -535
-207 -327 -279 -445 -273 -451 8 -7 30 23 228 316 260 384 371 544 425 612 43
56 86 81 105 62 5 -5 -81 -149 -196 -329 -238 -372 -386 -616 -379 -623 6 -7
-19 -43 225 318 272 401 389 567 431 607 20 18 50 34 72 38 l38 8 -47 -74
c-206 -320 -432 -679 -514 -813 -42 -69 -4 -29 68 72 38 53 154 221 257 372
213 311 288 414 318 435 23 16 53 20 60 8 3 -5 -80 -143 -185 -308 -241 -382
-351 -565 -345 -571 5 -6 56 66 272 386 246 364 355 510 381 510 8 0 14 -3 14
-7 0 -15 -79 -148 -214 -362 -201 -318 -282 -451 -273 -451 9 0 86 109 272
380 238 348 321 460 340 460 40 0 19 -40 -220 -415 -216 -339 -257 -406 -252
-412 7 -7 124 157 372 522 172 253 244 345 273 345 18 0 -12 -52 -207 -360
-163 -259 -250 -400 -271 -441 -40 -79 68 73 353 491 172 254 241 340 271 340
12 0 16 -5 12 -15 -3 -8 -90 -149 -194 -313 -211 -332 -276 -441 -271 -447 5
-5 140 186 363 515 l187 274 447 118 c246 64 448 117 450 118 2 0 -35 -42 -83
-92 -117 -127 -202 -248 -281 -403 -101 -200 -212 -333 -296 -355 -72 -20 -89
-85 -37 -145 39 -44 97 -62 151 -46 23 7 39 19 44 33 3 12 36 54 73 93 36 39
88 97 114 128 27 31 63 65 80 74 79 40 236 206 310 326 22 35 55 116 78 189
22 69 49 138 60 152 36 45 386 286 416 286 5 0 8 -80 8 -178 0 -175 0 -178 29
-235 22 -45 48 -75 117 -134 108 -92 110 -100 39 -200 -59 -86 -86 -106 -167
-127 -125 -31 -228 -98 -392 -253 l-93 -88 -19 -115 c-11 -63 -60 -279 -109
-480 -110 -450 -123 -527 -114 -676 7 -112 2 -143 -32 -225 -11 -24 -26 -39
-48 -47 -45 -16 -76 -75 -76 -142 0 -45 4 -56 31 -81 69 -64 199 -21 199 67 0
10 18 52 40 95 22 43 57 130 79 193 21 64 51 129 65 147 28 33 28 32 50 164
22 127 33 230 52 460 27 344 46 412 124 452 25 13 81 52 125 87 75 60 80 63
87 43 13 -44 7 -126 -12 -183 -22 -62 -94 -409 -105 -505 -5 -44 -4 -58 9 -68
23 -19 20 -61 -20 -285 -23 -127 -37 -236 -38 -296 -1 -90 0 -96 22 -105 28
-12 28 -9 -3 -275 -14 -118 -25 -242 -25 -276 0 -63 -1 -60 66 -152 15 -21 16
-34 6 -130 -30 -274 -6 -446 78 -552 16 -21 21 -47 26 -150 9 -182 23 -233
114 -415 l79 -160 21 -145 c26 -193 65 -342 115 -440 12 -25 32 -63 44 -86 15
-28 24 -72 31 -150 12 -125 32 -204 96 -382 75 -206 125 -301 195 -365 58 -54
59 -56 60 -109 0 -29 9 -84 19 -123 11 -38 34 -126 50 -195 17 -69 38 -135 46
-148 20 -30 60 -26 85 8 24 32 110 347 116 425 6 68 22 105 56 132 65 51 157
224 220 414 44 132 65 228 76 356 8 91 13 108 40 145 61 85 126 307 156 533
15 117 17 124 95 280 43 88 84 178 90 200 6 22 15 104 20 183 8 141 9 144 44
195 69 103 87 240 66 498 -13 159 -13 160 8 187 71 88 72 100 37 406 l-27 238
24 32 c20 27 23 41 21 116 -1 47 -11 137 -23 200 -11 63 -28 166 -38 227 -16
107 -16 114 1 143 17 28 17 35 -3 157 -27 165 -78 398 -97 443 -14 33 -21 176
-9 188 3 2 45 -28 93 -67 50 -40 104 -76 125 -82 72 -19 88 -83 128 -524 33
-361 61 -510 108 -570 12 -15 33 -65 47 -112 14 -46 42 -121 62 -166 20 -45
44 -107 54 -137 10 -32 27 -62 41 -73 32 -24 100 -33 137 -17 95 39 72 240
-28 240 -15 0 -24 13 -39 53 -29 79 -44 176 -32 217 25 87 11 175 -95 605 -41
165 -88 370 -106 455 -35 173 -47 203 -118 288 -95 114 -229 203 -396 263 -74
27 -98 41 -136 81 -62 64 -103 141 -90 166 6 11 42 44 80 76 140 113 155 150
156 384 0 94 1 172 3 172 10 0 161 -92 252 -154 161 -109 179 -130 219 -261
18 -60 44 -133 57 -161 52 -111 218 -300 325 -370 36 -24 85 -67 110 -96 24
-29 72 -83 106 -120 36 -38 63 -76 63 -88 0 -14 11 -26 34 -35 100 -42 233 62
182 140 -9 14 -36 37 -59 52 -54 34 -146 121 -196 187 -22 28 -68 107 -103
176 -71 141 -162 276 -267 398 -39 45 -68 82 -63 82 4 0 41 -9 82 -21 41 -11
230 -60 420 -109 190 -49 352 -91 360 -95 8 -3 35 -36 59 -73 70 -107 469
-695 491 -722 11 -14 20 -20 20 -14 0 13 -88 159 -292 484 -158 252 -184 297
-175 307 18 17 112 -103 302 -382 165 -243 312 -450 331 -466 16 -13 16 -12 4
11 -7 13 -106 171 -220 350 -269 424 -294 469 -255 454 22 -9 151 -184 360
-489 145 -211 219 -316 272 -384 2 -2 5 -2 8 1 3 2 -77 133 -177 289 -205 321
-338 537 -338 550 0 20 28 7 61 -28 52 -55 108 -132 269 -368 277 -406 340
-494 340 -468 0 4 -119 195 -264 423 -145 228 -262 418 -260 422 12 19 55 -17
117 -98 37 -49 143 -199 234 -334 217 -319 334 -483 340 -476 6 5 -94 166
-396 641 -138 217 -156 250 -139 253 48 8 102 -56 333 -395 185 -271 361 -522
378 -538 20 -20 -59 114 -202 340 -79 127 -191 304 -248 394 -57 90 -103 170
-103 177 0 16 33 18 60 4 28 -15 86 -94 305 -415 250 -367 377 -546 383 -541
6 7 -36 74 -311 506 -132 206 -249 390 -259 408 l-20 32 29 0 c50 0 76 -32
383 -480 395 -575 447 -636 181 -210 -63 102 -186 295 -272 430 -86 135 -155
248 -152 253 5 9 45 9 67 1 23 -9 126 -149 326 -444 95 -140 224 -328 287
-417 226 -322 141 -174 -283 494 -123 193 -224 356 -224 362 0 6 20 11 47 11
40 0 51 -5 82 -38 20 -21 166 -229 325 -462 290 -426 406 -591 406 -577 0 11
-105 183 -324 527 -229 362 -326 518 -326 525 0 7 45 6 64 -1 24 -9 156 -189
391 -534 226 -331 373 -540 381 -540 3 0 3 3 1 8 -63 106 -227 369 -426 681
-138 216 -249 396 -247 399 3 2 20 2 39 -2 57 -11 87 -50 412 -526 257 -377
393 -570 401 -570 3 0 -5 17 -17 38 -76 125 -225 363 -427 681 -128 200 -232
368 -232 374 0 20 93 -2 122 -30 34 -33 123 -158 413 -583 227 -333 352 -510
361 -510 10 0 -39 79 -406 655 -311 487 -300 465 -227 465 32 0 49 -6 64 -22
29 -33 183 -253 393 -563 292 -431 372 -545 382 -545 14 0 -17 51 -246 410
-305 479 -406 641 -427 685 -19 39 -19 39 36 -20 31 -33 194 -220 362 -415
355 -411 486 -560 492 -555 4 5 -47 71 -342 443 -372 470 -454 582 -428 582
21 0 154 -125 551 -514 223 -219 423 -412 445 -429 l40 -32 -44 53 c-47 57
-228 253 -562 608 -119 126 -234 249 -255 273 l-39 45 49 -34 c27 -18 228
-167 445 -330 542 -405 671 -499 671 -487 0 6 -314 267 -685 569 -306 249
-339 277 -332 285 12 11 203 -98 732 -417 347 -209 520 -310 531 -310 16 0
-120 92 -526 359 -459 302 -533 354 -509 359 22 4 127 -43 504 -226 449 -217
697 -334 701 -329 5 4 -216 129 -506 287 -291 158 -472 261 -467 266 4 4 262
-86 656 -231 311 -113 521 -186 521 -180 0 7 -104 53 -430 192 -516 219 -546
234 -507 249 28 10 170 -34 510 -157 360 -132 557 -200 557 -194 0 9 -80 45
-330 150 -338 142 -506 218 -492 223 18 6 125 -21 482 -118 417 -113 445 -121
434 -111 -9 8 -131 52 -546 197 -109 38 -194 70 -190 72 5 1 183 -27 398 -62
586 -97 625 -97 189 0 -310 68 -405 93 -405 106 0 12 104 8 565 -17 300 -17
280 -17 273 -10 -9 9 -109 23 -323 45 -220 22 -255 28 -255 40 0 9 5 10 310
65 277 50 393 75 386 82 -2 3 -91 -7 -198 -21 -254 -33 -479 -58 -484 -53 -2
2 99 45 224 97 242 99 392 166 392 174 0 8 -126 -31 -465 -144 -181 -60 -332
-110 -334 -110 -11 0 107 113 294 283 192 173 226 207 208 207 -8 0 -130 -90
-448 -331 -141 -107 -183 -134 -191 -126 -3 2 57 131 132 286 75 155 134 285
131 287 -6 6 -76 -94 -221 -314 -59 -90 -123 -181 -143 -202 -39 -45 -73 -53
-73 -18 0 11 48 140 106 285 58 145 104 269 102 275 -5 14 -64 -87 -188 -322
-109 -207 -132 -240 -166 -240 -15 0 -24 6 -24 16 0 9 24 91 54 182 156 477
156 505 0 145 -137 -315 -159 -355 -198 -340 -11 5 -13 13 -7 34 88 296 151
515 156 543 l6 35 -20 -35 c-10 -19 -60 -138 -110 -265 -105 -264 -127 -309
-159 -313 -12 -2 -22 0 -22 4 0 13 133 441 161 518 16 44 29 85 29 91 0 19
-166 302 -374 638 -109 176 -200 325 -202 332 -5 13 62 45 96 45 22 0 64 -60
320 -460 232 -362 328 -508 342 -516 23 -14 -80 159 -430 724 -96 156 -171
287 -166 291 20 18 117 52 125 44 4 -4 129 -197 277 -428 367 -574 359 -562
371 -570 6 -3 11 -3 11 0 0 12 -149 263 -343 577 -293 475 -284 456 -221 483
20 8 44 15 54 15 20 0 28 -11 376 -552 284 -442 304 -471 311 -465 6 6 -107
198 -329 560 -103 169 -211 347 -239 395 l-50 87 26 23 c58 49 48 61 385 -463
246 -382 330 -507 348 -513 6 -2 -66 122 -160 275 -289 469 -448 734 -448 748
0 15 18 30 46 39 24 7 71 -55 389 -514 395 -569 408 -559 27 20 -74 113 -179
277 -234 364 -104 170 -107 178 -46 191 26 6 36 2 70 -31 22 -22 97 -115 167
-209 361 -482 422 -563 451 -595 84 -94 -12 48 -388 574 -301 421 -267 417
131 -14 310 -335 430 -460 435 -455 7 6 -43 67 -249 300 -255 290 -429 498
-429 512 0 31 81 -24 381 -259 343 -269 477 -370 489 -366 6 2 -153 137 -352
300 -455 373 -443 362 -434 376 22 36 87 4 580 -283 196 -114 359 -205 363
-202 6 7 -86 68 -387 252 -559 342 -576 374 -93 169 356 -150 544 -226 549
-221 6 5 -201 102 -528 247 -153 68 -278 127 -278 132 0 15 100 8 443 -31 418
-48 483 -55 477 -48 -7 7 -363 69 -620 107 -112 17 -205 32 -207 33 -1 2 18
23 43 48 l45 44 272 7 c150 3 313 7 362 8 71 1 85 3 65 11 -14 6 -168 13 -342
16 -175 3 -318 8 -318 11 0 2 10 22 22 43 26 47 42 54 266 130 161 55 218 79
184 79 -7 0 -97 -22 -200 -50 -103 -27 -195 -50 -204 -50 -9 0 -28 15 -42 32
l-25 33 37 29 c62 51 167 154 161 160 -5 5 -29 -10 -169 -111 -109 -79 -114
-76 -94 72 35 263 24 296 -20 65 -15 -74 -31 -147 -37 -162 -10 -26 -36 -40
-91 -52 -25 -6 -28 -4 -28 21 0 38 28 285 40 352 6 30 8 56 5 59 -10 10 -27
-60 -59 -239 -18 -102 -37 -192 -41 -199 -4 -7 -31 -23 -59 -36 l-51 -24 -3
47 c-2 25 4 114 12 197 39 396 25 396 -30 1 l-38 -266 -35 -15 c-20 -9 -50
-18 -68 -21 l-32 -6 5 49 c34 332 52 593 38 559 -2 -5 -22 -136 -44 -290 -22
-154 -45 -297 -51 -317 -10 -39 -35 -58 -93 -72 l-29 -7 7 103 c4 57 16 204
27 328 10 124 18 245 18 270 -1 44 -2 44 -14 -20 -7 -36 -30 -211 -50 -390
-20 -179 -37 -326 -38 -326 -7 -6 -153 -64 -160 -64 -5 0 -6 12 -3 28 6 28 51
569 61 727 3 56 2 82 -4 70 -8 -19 -36 -239 -84 -660 l-22 -190 -40 -19 c-22
-10 -59 -25 -82 -32 l-43 -13 0 53 c0 29 14 216 30 416 29 354 35 448 26 439
-3 -2 -28 -189 -55 -414 -28 -226 -54 -434 -59 -464 l-7 -55 -79 -28 c-43 -16
-80 -27 -83 -25 -2 2 15 221 37 487 22 266 38 485 36 487 -11 11 -35 -160 -95
-682 l-37 -320 -77 -29 c-42 -16 -80 -26 -84 -23 -3 4 11 213 31 464 20 252
39 485 41 518 11 131 -15 10 -39 -187 -14 -112 -41 -333 -61 -493 -20 -159
-39 -301 -42 -314 -6 -24 -55 -51 -94 -51 -21 0 -22 2 -15 98 9 118 64 786 71
862 4 36 3 50 -3 40 -6 -8 -19 -85 -31 -170 -19 -141 -101 -831 -101 -852 0
-8 -120 -68 -136 -68 -4 0 -4 21 0 48 25 200 97 941 95 989 -1 26 -2 26 -10
-7 -4 -19 -36 -253 -69 -520 -48 -374 -66 -491 -79 -510 -10 -14 -42 -35 -72
-47 l-54 -22 -3 31 c-2 17 4 114 13 217 29 337 75 805 81 834 3 15 1 27 -4 27
-12 0 -33 -134 -92 -600 -61 -481 -68 -522 -83 -536 -17 -16 -77 -35 -88 -28
-16 10 -9 144 26 514 37 394 52 609 35 529 -5 -25 -39 -272 -75 -550 l-64
-504 -28 -23 c-30 -24 -70 -38 -80 -28 -4 3 10 187 30 409 71 767 57 771 -38
12 -57 -455 -60 -465 -112 -465 l-26 0 7 94 c3 52 19 226 35 387 39 388 44
455 37 448 -7 -7 -44 -236 -91 -569 -54 -380 -58 -394 -113 -410 -20 -5 -38
-7 -40 -5 -6 6 13 235 49 574 62 584 16 357 -102 -505 l-11 -82 -51 -20 c-29
-11 -53 -16 -55 -12 -2 5 15 172 37 372 22 199 42 395 45 433 12 134 -12 31
-54 -237 -23 -145 -54 -337 -68 -428 l-27 -165 -63 -13 c-35 -8 -65 -12 -66
-11 -2 2 16 139 39 304 73 516 68 554 -15 122 -79 -406 -82 -417 -110 -438
-14 -10 -36 -20 -50 -21 -24 -3 -25 -1 -22 47 1 28 18 169 37 314 19 145 35
275 34 290 l-1 26 -8 -25 c-5 -14 -30 -131 -55 -260 -71 -364 -75 -381 -101
-407 -13 -13 -35 -23 -50 -23 -31 0 -31 -24 12 295 35 262 36 272 25 254 -6
-8 -33 -128 -61 -265 -28 -137 -57 -260 -63 -274 -17 -36 -54 -39 -63 -5 -4
15 8 120 26 237 30 202 34 268 10 177 -7 -24 -30 -123 -51 -219 -44 -195 -54
-226 -77 -235 -33 -12 -39 17 -25 137 6 62 12 129 11 148 0 36 -13 -11 -53
-193 -13 -58 -23 -82 -40 -93 -34 -22 -366 -54 -630 -61 -163 -4 -288 -1 -430
11 -519 41 -642 32 -903 -66 -56 -21 -108 -38 -115 -37 -6 0 -34 45 -60 100
-81 167 -229 299 -336 299 -55 0 -62 8 -49 58 9 36 8 54 -7 102 -22 73 -26 67
120 175 96 71 115 90 143 143 18 33 37 87 43 119 12 66 34 95 99 128 58 30
128 99 150 150 10 22 21 74 25 115 9 97 21 152 45 206 12 25 20 64 20 95 0 42
10 72 54 163 66 133 99 243 132 434 29 173 30 228 4 310 -24 76 -25 120 -5
185 46 152 40 228 -21 253 -70 29 -147 11 -163 -39 -6 -18 -15 -97 -21 -177
-15 -208 -19 -236 -46 -272 -44 -61 -64 -108 -89 -201 -33 -128 -45 -220 -54
-414 l-8 -168 -37 -58 c-43 -67 -123 -242 -155 -339 -34 -103 -63 -115 -76
-31 -10 74 -47 145 -94 182 -36 29 -41 37 -41 74 0 23 11 83 25 132 52 189 80
446 73 669 -5 149 -15 180 -74 240 -79 79 -195 108 -259 66 -33 -22 -66 -25
-96 -10 -15 9 -19 21 -19 68 0 66 2 69 56 104 49 31 84 96 84 154 0 61 19 80
86 87 67 7 108 39 126 99 14 48 24 56 88 73 75 20 123 58 191 149 59 79 100
116 129 116 24 0 123 49 148 73 13 12 33 39 43 60 12 22 27 37 38 37 32 0 71
40 137 139 35 53 97 139 139 191 122 152 133 192 34 117 -30 -23 -111 -85
-180 -137 -68 -52 -152 -122 -187 -157 -45 -45 -70 -63 -89 -63 -31 0 -77 -48
-126 -130 -31 -53 -36 -57 -170 -123 -125 -62 -141 -74 -177 -123 -46 -61 -59
-70 -129 -85 -65 -14 -98 -40 -111 -89 -13 -46 -31 -58 -119 -77 -80 -17 -121
-47 -154 -114 l-26 -51 -16 39 c-30 72 -120 143 -182 143 -55 0 -74 12 -98 60
-30 60 -63 86 -131 106 -45 13 -63 26 -105 75 -33 38 -70 68 -103 83 -28 13
-86 41 -129 61 -70 32 -82 42 -114 93 -49 78 -100 131 -148 152 -22 10 -69 44
-105 75 -79 69 -335 275 -372 299 -18 12 -28 14 -33 6z m-3760 -3924 c18 -13
17 -16 -12 -77 -16 -35 -124 -217 -240 -404 -317 -513 -298 -480 -275 -503 11
-11 29 -45 41 -77 37 -100 133 -427 135 -459 2 -47 -32 -42 -61 9 -46 81 -223
554 -223 596 0 21 58 116 305 499 198 309 283 430 299 430 7 0 21 -6 31 -14z
m10712 -118 c233 -328 513 -773 513 -814 0 -27 -46 -156 -140 -394 -81 -203
-101 -240 -131 -240 -20 0 -21 4 -15 40 9 60 103 364 139 455 19 45 38 79 45
78 7 -2 12 2 12 8 0 7 -95 168 -212 358 -254 416 -348 578 -348 603 0 13 8 18
29 18 25 0 38 -14 108 -112z m-10553 59 c17 -13 17 -16 -9 -68 -64 -125 -390
-655 -459 -744 -35 -46 -47 -56 -58 -49 -4 3 -8 2 -8 -1 0 -18 57 -224 114
-410 35 -115 60 -214 55 -219 -16 -17 -39 4 -69 65 -36 70 -131 316 -179 461
-31 93 -32 98 -16 128 21 41 346 552 435 685 108 160 144 189 194 152z m10643
-436 l285 -444 -18 -46 c-59 -159 -207 -528 -221 -552 -10 -16 -24 -29 -32
-29 -23 0 -8 82 58 303 80 269 93 327 76 327 -24 0 -125 152 -392 589 -79 129
-143 240 -143 248 0 14 68 53 89 50 7 -1 141 -202 298 -446z m-10507 379 c22
-11 40 -25 40 -30 0 -18 -399 -668 -464 -757 -32 -44 -59 -54 -70 -27 -4 9 -8
15 -11 13 -7 -8 23 -123 95 -366 39 -128 70 -239 70 -247 0 -20 -16 -29 -40
-21 -28 9 -63 82 -164 346 l-87 226 283 441 c156 243 289 441 296 442 7 0 31
-9 52 -20z m10168 -162 c189 -282 456 -702 454 -718 -1 -18 -174 -466 -197
-510 -19 -37 -60 -59 -77 -42 -9 9 -9 21 1 49 51 163 160 557 155 562 -4 3 -9
0 -11 -6 -8 -22 -30 -14 -61 21 -29 34 -465 725 -478 759 -5 13 2 21 27 32 68
29 69 28 187 -147z m-9985 100 c32 -16 46 11 -213 -413 -97 -159 -191 -316
-208 -347 -33 -59 -29 -79 6 -31 18 25 20 26 30 7 5 -10 44 -129 86 -264 43
-135 83 -265 91 -289 l15 -43 -33 6 c-17 3 -42 17 -54 30 -11 14 -72 153 -134
310 -62 157 -116 286 -120 286 -11 0 11 -84 90 -354 74 -251 77 -261 62 -270
-34 -21 -69 45 -185 342 l-75 193 201 312 c211 328 317 487 351 524 20 23 47
23 90 1z m9845 -180 c66 -101 189 -291 274 -424 l155 -241 -13 -34 c-94 -247
-179 -450 -198 -473 -16 -21 -28 -27 -40 -23 -22 9 -21 14 46 236 68 228 108
381 99 381 -4 0 -53 -116 -110 -259 -115 -292 -147 -351 -187 -351 -24 0 -26
2 -20 33 3 18 42 150 86 292 44 142 78 260 76 263 -7 7 -49 -82 -130 -275
-118 -285 -145 -333 -188 -333 -15 0 -1 66 47 230 67 223 105 322 126 327 11
3 19 7 19 10 0 11 -49 94 -233 393 -110 179 -202 333 -205 342 -6 23 96 55
114 36 7 -7 82 -121 166 -253 222 -345 327 -503 339 -510 24 -15 -60 128 -316
538 -80 129 -145 239 -145 245 0 13 46 30 86 31 30 1 38 -8 152 -181z m-9684
136 c34 -13 15 -53 -140 -306 -158 -255 -274 -450 -274 -460 0 -4 7 -8 15 -8
9 0 24 -20 36 -47 31 -72 151 -472 147 -491 -6 -32 -36 -24 -62 15 -14 21 -64
133 -111 248 -48 116 -100 239 -116 274 l-29 64 43 81 c86 161 327 535 385
596 38 39 68 49 106 34z m175 -59 c17 -17 -370 -675 -397 -675 -5 0 -13 5 -20
12 -21 21 -14 -8 57 -236 90 -284 111 -365 102 -371 -23 -14 -67 75 -197 401
l-85 211 177 274 c261 403 270 414 326 398 17 -4 33 -11 37 -14z m9072 -18
c33 -45 238 -356 332 -503 l97 -151 -91 -223 c-113 -280 -165 -390 -184 -390
-8 0 -15 3 -15 8 0 4 41 141 91 305 51 163 89 300 86 304 -4 3 -13 0 -21 -6
-13 -11 -26 3 -82 91 -156 240 -324 532 -324 562 0 33 88 36 111 3z m-8913
-27 c23 -10 42 -21 42 -23 0 -2 -57 -101 -127 -218 -139 -235 -242 -426 -226
-416 10 7 54 74 252 394 108 174 155 233 186 233 13 0 27 -5 31 -11 11 -18 -8
-55 -243 -483 -111 -202 -31 -93 152 208 43 70 98 155 122 187 38 53 47 59 78
59 32 0 35 -3 35 -28 0 -15 -24 -70 -53 -122 -29 -52 -93 -166 -141 -253 -49
-87 -86 -160 -84 -163 6 -6 116 162 227 348 98 165 135 201 185 182 33 -12 21
-39 -119 -274 -94 -159 -135 -233 -135 -247 0 -13 66 84 178 261 126 200 149
226 190 226 61 0 60 -1 -101 -267 -111 -184 -138 -249 -54 -131 25 35 89 133
142 218 54 85 99 156 100 158 4 5 99 -20 108 -28 5 -4 -24 -61 -64 -126 -94
-156 -160 -276 -155 -281 4 -5 20 17 154 217 128 193 105 181 270 141 722
-172 956 -214 1367 -246 181 -14 269 -27 415 -60 81 -18 241 -19 340 -1 41 8
131 30 199 50 135 40 134 40 146 -22 7 -37 -4 -52 -39 -52 -28 0 -176 -72
-247 -121 -118 -80 -266 -127 -754 -239 -468 -107 -638 -140 -653 -127 -8 6
-27 34 -44 62 -29 50 -30 50 -25 15 3 -19 9 -50 13 -67 12 -59 -15 -37 -53 43
-41 84 -53 84 -29 0 36 -124 10 -126 -53 -6 -24 47 -46 79 -49 72 -3 -10 24
-114 44 -167 4 -10 0 -15 -11 -15 -11 0 -33 37 -71 117 -59 126 -61 129 -69
121 -3 -3 11 -55 31 -116 40 -120 40 -169 2 -122 -11 14 -46 77 -77 140 -30
63 -57 108 -59 99 -2 -9 15 -72 37 -140 30 -90 37 -125 28 -131 -21 -13 -48
24 -113 154 -35 69 -68 129 -73 133 -12 7 8 -63 55 -195 19 -52 34 -98 34
-102 0 -5 -9 -8 -19 -8 -28 0 -58 45 -142 210 -40 79 -74 140 -76 134 -2 -6
21 -82 52 -169 55 -158 63 -195 45 -195 -15 0 -62 76 -151 244 -46 87 -85 154
-86 149 -2 -5 24 -87 57 -183 61 -177 69 -213 49 -225 -15 -10 -32 17 -85 140
-80 185 -144 318 -149 313 -3 -3 24 -97 60 -208 36 -112 65 -215 65 -228 0
-44 -25 -8 -80 116 -91 201 -148 322 -154 322 -9 0 0 -33 65 -243 33 -103 59
-194 59 -202 0 -25 -27 -17 -49 14 -11 16 -48 93 -82 171 -64 151 -126 280
-134 280 -8 0 3 -40 77 -268 63 -198 71 -232 48 -232 -17 0 -70 100 -144 267
-41 94 -84 189 -96 210 l-21 38 7 -35 c4 -19 35 -124 70 -234 67 -209 73 -236
50 -236 -26 0 -63 62 -144 240 -145 323 -155 324 -52 6 39 -119 70 -222 70
-231 0 -8 -9 -15 -20 -15 -26 0 -53 48 -159 283 -49 107 -94 202 -100 213 -22
35 -2 -42 65 -248 61 -189 76 -258 54 -258 -19 0 -61 78 -154 287 -51 116 -99
219 -105 229 -23 37 0 -47 75 -276 43 -132 70 -228 64 -234 -14 -14 -58 2 -76
29 -9 13 -53 109 -99 212 -107 244 -138 309 -142 296 -2 -6 33 -124 78 -264
45 -140 82 -258 83 -264 2 -14 -49 -18 -73 -5 -27 14 -45 51 -142 283 -88 210
-134 303 -124 252 3 -16 40 -142 82 -278 54 -179 73 -251 65 -259 -17 -17 -39
7 -77 87 -41 86 -185 435 -185 448 0 11 355 563 414 645 27 35 54 62 64 62 9
0 36 -9 60 -20z m8780 -79 c107 -143 392 -598 392 -624 0 -23 -128 -346 -176
-444 -34 -71 -49 -93 -64 -93 -27 0 -26 11 21 157 46 145 119 400 119 416 0
31 -29 -31 -119 -256 -126 -315 -124 -311 -184 -315 -26 -2 -47 -2 -47 0 0 2
20 64 45 138 68 200 126 392 121 397 -6 7 -54 -88 -126 -252 -75 -169 -115
-248 -135 -269 -22 -21 -69 -22 -61 -1 18 47 146 455 151 480 7 37 -68 -110
-154 -303 -69 -155 -92 -192 -122 -192 -10 0 -19 3 -19 6 0 3 36 112 80 243
111 330 105 346 -24 59 -126 -280 -142 -308 -181 -308 -22 0 -20 7 46 211 64
198 90 291 76 278 -4 -3 -47 -96 -96 -207 -88 -201 -132 -277 -154 -269 -7 2
-11 15 -9 28 4 32 107 367 133 431 11 28 18 53 15 55 -9 9 -38 -47 -125 -239
-95 -210 -133 -278 -156 -278 -8 0 -15 4 -15 8 0 5 32 109 70 232 39 123 69
228 67 233 -1 5 -23 -35 -49 -90 -180 -383 -188 -396 -209 -376 -10 10 -2 46
41 175 105 323 108 359 10 140 -111 -248 -150 -326 -161 -315 -6 6 8 64 45
179 74 228 86 274 76 274 -4 0 -34 -60 -66 -132 -112 -252 -157 -329 -181
-304 -4 4 16 78 46 164 30 86 60 177 67 202 12 41 12 43 -2 25 -8 -11 -53 -95
-99 -186 -84 -165 -105 -196 -125 -184 -13 8 -7 32 46 180 76 216 71 217 -41
5 -82 -157 -108 -191 -126 -173 -8 8 0 48 31 152 23 78 40 146 38 152 -2 6
-19 -22 -37 -62 -19 -41 -49 -107 -67 -147 -18 -39 -40 -75 -49 -78 -36 -14
-36 13 0 131 20 65 34 125 32 134 -2 9 -29 -36 -59 -99 -67 -138 -82 -160 -99
-143 -9 9 -5 34 20 113 18 56 30 107 28 113 -2 7 -27 -33 -55 -89 -74 -148
-106 -165 -61 -33 33 100 17 101 -35 2 -65 -126 -79 -124 -51 7 7 36 12 66 10
68 -2 2 -20 -28 -40 -67 -51 -97 -72 -96 -39 2 27 81 10 89 -26 12 -18 -38
-34 -71 -35 -73 -8 -9 -654 132 -960 210 -263 66 -354 99 -444 161 -90 60
-200 112 -260 122 -42 7 -43 8 -37 37 3 17 6 39 6 50 0 17 5 19 38 16 20 -3
92 -21 159 -41 219 -65 337 -70 530 -23 97 23 166 32 453 56 291 25 641 88
1133 204 152 36 285 66 295 66 13 0 54 -56 138 -191 65 -105 122 -196 126
-202 4 -6 10 -9 13 -5 8 8 -8 40 -122 235 -53 90 -93 169 -90 177 6 16 67 29
91 20 19 -7 72 -83 200 -289 99 -158 94 -150 102 -142 7 7 -22 61 -153 279
-51 86 -93 161 -93 167 0 20 49 24 76 7 14 -10 91 -117 170 -239 80 -122 150
-226 155 -231 26 -27 2 23 -67 140 -135 230 -194 332 -200 347 -6 18 55 42 83
33 10 -3 90 -125 177 -271 143 -239 176 -289 176 -270 0 11 -42 89 -166 310
-68 122 -124 228 -124 237 0 31 77 39 102 11 9 -10 70 -108 135 -218 163 -272
206 -340 211 -327 3 10 -70 145 -208 387 -93 162 -103 184 -89 201 16 19 63
18 81 -3 8 -10 89 -137 178 -283 200 -325 203 -330 213 -330 12 0 -41 99 -202
375 -83 142 -151 263 -151 267 0 13 41 27 83 27 35 1 40 -3 95 -78z"/>
</g>
</svg>
